<svg xmlns="http://www.w3.org/2000/svg" viewBox="0 0 27.51 28.05"><defs><style>.cls-1,.cls-2{fill:#fff;}.cls-2{stroke:#fff;stroke-miterlimit:10;stroke-width:0.15px;}</style></defs><g id="Layer_2" data-name="Layer 2"><g id="Layer_1-2" data-name="Layer 1"><path class="cls-1" d="M18.8,23.21a6.56,6.56,0,0,0-4.8-2,6.54,6.54,0,0,0-4.82,2,6.63,6.63,0,0,0-2,4.8h0c4.33,0,9.25,0,13.59,0h0A6.58,6.58,0,0,0,18.8,23.21Z"/><path class="cls-1" d="M11.27,6.86a3.84,3.84,0,0,0,0,5.48,3.83,3.83,0,0,0,5.47,0,3.84,3.84,0,0,0,0-5.48,3.83,3.83,0,0,0-5.47,0Z"/><path class="cls-1" d="M4.8,16.72A11.32,11.32,0,0,1,2.34,9.6,11.24,11.24,0,0,1,5.76,1.36,12.75,12.75,0,0,1,7.37,0C4.63,0,2.11.07.15.12,0,5.86,0,16.25.06,23.64A14.11,14.11,0,0,1,4.8,16.72Z"/><path class="cls-1" d="M22.25,1.36A11.24,11.24,0,0,1,25.67,9.6a11.32,11.32,0,0,1-2.46,7.12A14,14,0,0,1,28,23.85c.12-7.39.08-17.93-.08-23.73-2,0-4.52-.1-7.28-.12A12,12,0,0,1,22.25,1.36Z"/><path class="cls-1" d="M34.88,6.52v4.9h6.43V12.5H33.8V.06h7.51V1.15H34.88V5.44h6.43V6.52Z"/><path class="cls-1" d="M42.85,12.5V.06h1.08V12.5Z"/><path class="cls-1" d="M56.22,7.91H51.33V6.82h6.2a6.05,6.05,0,0,1-2,4,6.23,6.23,0,0,1-8.6-.17,6,6,0,0,1-1.82-4.4,6,6,0,0,1,1.82-4.4A6,6,0,0,1,51.33.06a6.2,6.2,0,0,1,5.13,2.7H55.09a5,5,0,0,0-3.76-1.61,4.94,4.94,0,0,0-3.62,1.5A5,5,0,0,0,46.2,6.29a5,5,0,0,0,1.51,3.63,4.94,4.94,0,0,0,3.62,1.5,5.15,5.15,0,0,0,4.89-3.51Z"/><path class="cls-1" d="M65.85.06h1.08V12.5H65.85v-6H59.77v6H58.69V.06h1.08V5.44h6.08Z"/><path class="cls-1" d="M68.18,1.13V.06h7.57V1.13H72.52V12.5H71.43V1.13Z"/><path class="cls-1" d="M39.83,15.61l4.79,12.44h-2.9l-.8-2.1h-3.8l-.81,2.1H33.42l4.8-12.44Zm0,7.64L39,21l-.86,2.21Z"/><path class="cls-1" d="M45.15,24.53V19.82h-1V18.31h1v-2.7h2.7v2.7h1v1.51h-1v4.71a.76.76,0,0,0,.25.58.78.78,0,0,0,.58.23h.24v2.71h-.24a3.52,3.52,0,0,1-3.53-3.52Z"/><path class="cls-1" d="M54.69,18.31A4.39,4.39,0,0,1,59,22.64v5.41H56.32V22.64a1.63,1.63,0,0,0-3.25,0v5.41h-2.7V15.61h2.7v3A4.25,4.25,0,0,1,54.69,18.31Z"/><path class="cls-1" d="M60.19,23.18V15.61h2.7v7.57A2.15,2.15,0,0,0,65,25.34v2.71a4.85,4.85,0,0,1-4.85-4.87Z"/><path class="cls-1" d="M67.24,19.74a4.82,4.82,0,0,1,8.19,4.09H68.59a2.21,2.21,0,0,0,.78,1.09,2.18,2.18,0,0,0,2.28.18H75.1a4.86,4.86,0,0,1-1.77,2.14,4.71,4.71,0,0,1-2.67.81,4.85,4.85,0,0,1-4.84-4.87A4.67,4.67,0,0,1,67.24,19.74Zm1.49,2.47h3.83a2.22,2.22,0,0,0-.78-.86,2.1,2.1,0,0,0-2.26,0A2.33,2.33,0,0,0,68.73,22.21Z"/><path class="cls-1" d="M76.81,24.53V19.82h-1V18.31h1v-2.7h2.7v2.7h1v1.51h-1v4.71a.8.8,0,0,0,.82.81h.25v2.71h-.25a3.52,3.52,0,0,1-3.52-3.52Z"/><path class="cls-1" d="M82,18.31h2.72v9.74H82Zm.5-2.35a1.18,1.18,0,0,1,.86-.35,1.21,1.21,0,0,1,.86.35,1.23,1.23,0,0,1-.86,2.09,1.15,1.15,0,0,1-.86-.36,1.22,1.22,0,0,1,0-1.73Z"/><path class="cls-1" d="M90.6,18.32a4.85,4.85,0,0,1,4.57,3.15H91.93A2.16,2.16,0,0,0,90.6,21a2,2,0,0,0-1.52.63,2.17,2.17,0,0,0,0,3.06,2,2,0,0,0,1.52.63,2.12,2.12,0,0,0,1.5-.59h3.11a4.87,4.87,0,0,1-4.61,3.3,4.85,4.85,0,0,1-4.85-4.87,4.85,4.85,0,0,1,4.85-4.86Z"/><path class="cls-1" d="M99.38,28.05a2.88,2.88,0,0,1-2.23-1,3.35,3.35,0,0,1-.87-2.33H99a.3.3,0,0,0,0,.18.39.39,0,0,0,.12.28.36.36,0,0,0,.28.12.4.4,0,0,0,.29-.12.36.36,0,0,0,.12-.28.41.41,0,0,0-.29-.4l-1.22-.48A3,3,0,0,1,96.92,23a2.93,2.93,0,0,1-.52-1.68,2.83,2.83,0,0,1,.89-2.11,3,3,0,0,1,2.13-.86,2.81,2.81,0,0,1,2,.84,2.93,2.93,0,0,1,.9,2H99.62a.26.26,0,0,0-.42-.07.29.29,0,0,0-.08.19.23.23,0,0,0,.14.23l1.32.55a3.06,3.06,0,0,1,1.4,1.16,3.09,3.09,0,0,1,.53,1.73,3,3,0,0,1-.92,2.19A3.05,3.05,0,0,1,99.38,28.05Z"/><path class="cls-2" d="M77.71.46V.16h2.1v.3h-.9V3.62h-.3V.46Z"/><path class="cls-2" d="M80.16.16h.3L81.7,3,82.94.16h.31V3.62H83V.9L81.78,3.62h-.16L80.46.92v2.7h-.3Z"/></g></g></svg>