<svg xmlns="http://www.w3.org/2000/svg" version="1.1" viewBox="0 120 510.98 278.03"><path d="" stroke="none" fill="#080404" fill-rule="evenodd"/><path d="M 98.500 120.733 C 95.279 121.539, 91.086 124.933, 89.485 128.029 C 88.365 130.195, 88 134.597, 88 145.950 L 88 161 69.423 161 L 50.846 161 47.923 163.923 C 44.130 167.716, 44.130 171.284, 47.923 175.077 L 50.846 178 102.469 178 L 154.091 178 156.545 175.545 C 159.568 172.523, 159.814 167.228, 157.090 163.861 C 155.185 161.506, 155.112 161.499, 129.590 161.202 L 104 160.904 104 148.952 L 104 137 236 137 L 368 137 368 241.008 L 368 345.016 309.860 344.758 L 251.721 344.500 250.476 340.286 C 248.775 334.524, 244.931 328.200, 240.106 323.229 C 217.454 299.887, 178.075 308.406, 166.896 339.066 L 164.732 345 134.366 345 L 104 345 104 323.077 L 104 301.155 117.589 300.827 C 131.065 300.503, 131.198 300.477, 133.589 297.694 C 137.295 293.381, 136.215 287.330, 131.343 285.110 C 129.655 284.341, 112.619 284, 75.907 284 L 22.909 284 20.455 286.455 C 18.953 287.956, 18 290.059, 18 291.873 C 18 300.772, 18.960 301, 56.450 301 L 88 301 88 329.326 C 88 357.641, 88.001 357.652, 90.314 359.826 C 92.602 361.975, 93.043 362, 128.632 362 L 164.635 362 166.296 367.271 C 169.509 377.461, 177.712 387.348, 187.273 392.552 C 211.337 405.649, 240.523 394.341, 249.998 368.250 L 252.268 362 324.019 362 L 395.770 362 397.484 367.241 C 399.964 374.822, 403.325 380.072, 409.346 385.766 C 421.031 396.818, 437.076 400.722, 451.875 396.116 C 460.213 393.521, 465.633 390.138, 471.654 383.773 C 477.205 377.903, 480.144 372.892, 481.934 366.244 L 483.077 362 492.289 361.996 C 499.660 361.993, 502.140 361.603, 504.701 360.040 C 510.803 356.320, 511.003 355.153, 510.974 323.300 C 510.950 296.127, 510.822 294.133, 508.712 288 C 506.354 281.144, 462.263 201.100, 458.730 197.259 C 457.596 196.026, 454.801 194.114, 452.518 193.009 C 448.630 191.127, 446.371 191, 416.684 191 L 385 191 385 161.460 C 385 134.061, 384.857 131.641, 383.033 128.066 C 381.686 125.425, 379.697 123.548, 376.718 122.105 L 372.369 120 236.434 120.116 C 161.670 120.180, 99.600 120.457, 98.500 120.733 M 90.635 196.073 L 88 198.145 88 223.073 L 88 248 75.934 248 C 69.298 248, 63.045 248.441, 62.039 248.979 C 59.393 250.395, 57.848 255.470, 59.078 258.706 C 61.150 264.155, 57.871 263.934, 137.168 263.968 C 177.686 263.986, 211.565 263.720, 212.455 263.379 C 215.017 262.396, 217.213 257.245, 216.484 253.928 C 215.147 247.839, 216.744 248, 157.777 248 L 104 248 104 223.455 L 104 198.909 101.545 196.455 C 98.509 193.418, 94.201 193.267, 90.635 196.073 M 2.750 206.549 C 0.275 207.912, 0 208.606, 0 213.475 C -0 222.194, -0.791 222, 34.799 222 L 65.154 222 68.194 218.960 C 70.749 216.404, 71.132 215.409, 70.593 212.713 C 70.240 210.950, 69.050 208.605, 67.949 207.503 C 66.045 205.598, 64.465 205.489, 35.724 205.267 C 10.296 205.072, 5.064 205.275, 2.750 206.549 M 385 276.986 L 385 346 390.461 346 L 395.923 346 397.066 341.750 C 403.405 318.190, 429.177 304.560, 453.299 312.011 C 465.798 315.871, 477.264 327.248, 481.496 339.987 L 483.161 345 489.183 345 L 495.205 345 494.789 320.750 C 494.433 299.940, 494.109 295.872, 492.506 292.070 C 491.479 289.634, 480.706 269.834, 468.566 248.070 L 446.493 208.500 415.747 208.236 L 385 207.971 385 276.986 M 201.803 327.388 C 184.119 332.192, 175.931 351.078, 184.615 367.034 C 189.916 376.773, 198.893 381.579, 210.341 380.805 C 225.434 379.786, 235.510 368.811, 235.412 353.500 C 235.342 342.598, 230.096 334.087, 220.704 329.636 C 214.114 326.513, 207.792 325.761, 201.803 327.388 M 432.803 327.388 C 419.572 330.982, 410.855 343.565, 412.410 356.824 C 413.997 370.353, 424.047 379.886, 437.694 380.808 C 457.031 382.113, 471.086 364.568, 465.659 345.898 C 461.740 332.418, 446.304 323.721, 432.803 327.388" stroke="none" fill="#040404" fill-rule="evenodd"/></svg>