
<svg version="1.0" xmlns="http://www.w3.org/2000/svg"
 width="1429.000000pt" height="828.000000pt" viewBox="0 0 1429.000000 828.000000"
 preserveAspectRatio="xMidYMid meet">

<g transform="translate(0.000000,828.000000) scale(0.100000,-0.100000)"
fill="#000000" stroke="none">
<path d="M0 4140 l0 -4140 7145 0 7145 0 0 4140 0 4140 -7145 0 -7145 0 0
-4140z m10550 2975 c538 -65 985 -243 1261 -503 248 -232 381 -504 472 -961
31 -152 38 -174 66 -206 20 -23 31 -47 32 -68 0 -18 2 -39 4 -48 1 -9 5 -65 9
-125 3 -60 12 -197 20 -304 8 -107 18 -233 21 -280 6 -92 11 -162 20 -280 8
-94 13 -163 20 -265 8 -121 15 -223 20 -290 3 -33 7 -96 10 -140 4 -44 8 -93
10 -110 2 -16 -5 -55 -16 -85 -18 -48 -21 -93 -29 -340 -13 -440 -46 -624
-155 -885 -188 -449 -597 -862 -1119 -1131 -326 -167 -647 -267 -1036 -321
-176 -24 -571 -24 -730 0 -245 38 -428 94 -611 188 -144 75 -261 162 -370 276
-164 173 -260 349 -449 823 -66 168 -147 359 -180 425 -167 345 -348 506 -598
533 -203 23 -368 -35 -513 -178 -145 -144 -236 -307 -416 -750 -203 -501 -295
-667 -467 -848 -261 -273 -606 -427 -1081 -483 -143 -16 -473 -14 -640 6
-1080 124 -2022 783 -2308 1611 -74 212 -102 388 -121 749 -12 228 -14 243
-40 293 -15 30 -25 57 -22 60 3 3 1 11 -5 19 -9 10 -8 13 5 13 9 0 16 5 16 10
0 6 -6 10 -14 10 -16 0 -10 40 8 52 8 5 7 13 -2 28 -16 26 -15 40 3 40 8 0 15
4 15 10 0 5 -7 7 -15 4 -8 -4 -15 -1 -15 5 0 6 4 11 9 11 5 0 7 9 4 20 -4 15
0 20 13 21 17 1 17 2 2 6 -10 2 -18 9 -18 14 0 6 5 7 11 3 8 -5 8 -1 0 14 -15
27 -14 32 4 32 8 0 15 4 15 10 0 5 -7 7 -15 4 -8 -4 -15 -1 -15 5 0 6 4 11 9
11 5 0 7 9 4 20 -4 14 0 20 11 20 17 0 22 15 7 24 -5 4 -11 0 -14 -6 -3 -7 -4
0 -2 17 1 16 7 31 14 33 6 2 11 8 11 13 0 4 -7 6 -15 3 -8 -4 -15 -1 -15 5 0
6 4 11 9 11 5 0 7 9 4 20 -4 14 0 20 11 20 19 0 21 16 4 26 -7 4 -8 3 -4 -4 4
-7 2 -12 -3 -12 -18 0 -7 44 12 52 22 9 13 30 -8 21 -8 -3 -15 0 -15 6 0 6 4
11 10 11 5 0 7 7 4 15 -4 9 0 15 10 15 9 0 16 5 16 10 0 6 -7 10 -15 10 -8 0
-15 5 -15 11 0 5 6 7 13 3 10 -6 10 -4 0 7 -18 19 -16 29 7 29 21 0 27 15 10
25 -5 3 -10 1 -10 -6 0 -10 -3 -10 -13 0 -9 10 -9 15 0 18 7 2 9 11 6 19 -3 8
1 14 11 14 9 0 16 5 16 11 0 6 -7 9 -15 5 -9 -3 -15 0 -15 10 0 9 5 12 13 8 9
-6 9 -4 -1 7 -17 19 -15 27 9 31 19 3 19 4 5 23 -13 16 -15 17 -10 3 3 -10 1
-18 -5 -18 -12 0 -13 6 -5 38 4 12 13 22 20 22 16 0 19 16 5 24 -5 4 -11 0
-14 -6 -3 -7 -5 2 -4 20 0 20 5 32 14 32 7 0 13 4 13 10 0 5 -7 7 -15 4 -10
-4 -15 0 -15 11 0 9 4 14 9 11 5 -4 7 3 4 14 -4 15 0 20 13 21 16 1 16 2 2 6
-21 5 -22 63 -1 63 7 0 13 4 13 10 0 5 -7 7 -15 4 -16 -7 -18 -1 -9 34 4 12
13 22 21 22 8 0 11 5 8 10 -4 6 -10 8 -14 5 -5 -2 -8 7 -8 20 0 15 5 25 13 25
8 0 14 5 14 11 0 6 -7 9 -15 5 -20 -7 -20 28 0 48 8 8 15 21 14 28 0 10 -2 10
-6 1 -7 -18 -23 -16 -23 2 0 8 4 15 10 15 5 0 7 7 4 15 -4 9 0 15 10 15 9 0
16 4 16 10 0 5 -7 7 -15 4 -10 -4 -15 0 -15 14 0 11 7 27 15 36 8 8 15 21 15
28 0 10 -3 9 -10 -2 -13 -21 -24 -5 -16 25 4 14 14 26 24 26 16 1 16 2 0 6
-23 6 -25 63 -3 63 8 0 15 4 15 10 0 5 -7 7 -15 4 -10 -4 -15 0 -15 12 0 24
11 39 30 47 12 4 11 6 -2 6 -15 1 -18 11 -18 60 0 52 3 60 22 67 19 6 19 7 5
16 -23 13 -22 79 2 126 10 20 37 57 59 82 35 40 43 60 66 155 65 270 179 536
300 695 310 411 861 665 1595 735 177 17 530 19 706 5 344 -29 558 -71 1212
-235 699 -177 928 -221 1263 -246 179 -13 357 -6 580 22 267 34 480 80 1110
244 558 145 823 196 1175 225 159 13 576 4 735 -15z"/>
<path d="M1737 5253 c-4 -3 -7 -11 -7 -17 0 -6 5 -5 12 2 6 6 9 14 7 17 -3 3
-9 2 -12 -2z"/>
</g>
</svg>
