
<svg version="1.1" id="Layer_1" xmlns="http://www.w3.org/2000/svg"  x="0px" y="0px"
	 viewBox="0 0 1920 1080" style="enable-background:new 0 0 1920 1080;" xml:space="preserve">
<style type="text/css">
	.st0{fill:none;stroke:#000000;stroke-linecap:round;stroke-linejoin:round;stroke-miterlimit:10;}
</style>
<g id="POINT_4_">
	<path class="st0" d="M623.94,737.77L623.94,737.77l-136.22-37.32l0,0l63.39-64.17c11.59,4.75,5.17,2.12,11.07,3.49
		c4.75,1.1,17.46,4.8,30.18,4.24c7.61-0.33,15.23-2.19,20.16-4.37c5.88-2.59,7.96-5.64,9.75-8.81c5.49-9.73,8.21-20.57,11.86-43
		c2.21-13.58,4.76-31.41,8.86-46.54c4.24-15.65,10.13-28.42,20.03-40.86c8.82-11.09,20.82-21.92,36.69-34.01
		c7.13-5.43,15.04-11.11,20.84-16.71c3.33-3.22,5.96-6.41,7.4-8.89c1.84-3.19,1.71-5.22,1.38-7c-0.96-5.21-3.6-8.33-8.13-11.76
		c-7.54-5.72-20.35-12.32-38.06-17.83c-15.8-4.91-35.51-8.94-55.16-9.52c-16.73-0.49-33.42,1.52-48.01,6.58
		c-14.56,5.05-27.03,13.12-37.27,23.14c-10.78,10.54-19.08,23.23-25.25,37.09c-6.39,14.38-10.48,30.02-12.4,46.27
		c-1.89,15.98-1.68,32.53,2.18,52.64c3.74,19.47,10.9,42.29,43.89,75.84l24.28-88.39c2.59-0.53,1.64-0.34,1.38-0.31
		c-0.44,0.04,1.18-0.41,2.78-1.08c4.92-2.04,9.74-6.03,17.3-14.69c6.11-7,14.02-17.04,21.94-27.89
		c7.65-10.48,15.31-21.7,21.99-36.12c2.66-5.74,5.17-11.99,6.22-16.39c1.3-5.43,0.38-8.03-1.01-10.25
		c-3.9-6.21-11.53-9.4-27.64-8.18c-8.74,0.66-19.97,2.62-27.96,5.35c-8.1,2.77-12.86,6.32-17.02,10.53
		c-8.46,8.55-14.48,19.78-16.36,43.83c-0.76,9.71-0.84,21.51,1.94,32.7c1.9,7.65,5.14,15.02,16.44,22.49l-129.47,3.48c0,0,0,0,0,0
		c5.3-62.92,12.85-92.6,21.69-115.29c8.32-21.36,17.77-36.55,30.75-48.7c11.52-10.79,25.82-19.19,42.67-24.88
		c16.43-5.55,35.28-8.51,54.85-9.83c23.39-1.58,47.82-0.8,71.15,1.26c28.31,2.49,55,6.87,79.05,12.79
		c24.98,6.16,47.13,13.99,63.47,22.28c13.96,7.08,23.69,14.49,29.71,25.39c2.96,5.36,5.03,11.57,2.51,20.34
		c-1.92,6.68-6.49,14.86-12.02,22.28c-7.75,10.41-17.38,19.33-28.46,28.72c-11.5,9.74-24.56,20-36.09,30.02
		c-19.29,16.78-34.27,32.94-45.88,50.55c-10.65,16.16-18.46,33.54-25.03,49.87c-7.19,17.87-12.91,34.5-19.45,50.78
		c-5.11,12.71-10.72,25.22-18.23,36.68c-6.98,10.64-15.6,20.38-26.79,27.09c-9.76,5.86-21.47,9.41-35.59,9.58
		c-14.2,0.17-30.84-3.08-45.83-8.22c-23.47-8.05-42.91-20.75-57.4-34.49c-14.84-14.07-24.5-29.22-31.2-46.47
		c-5.42-13.97-8.91-29.31-10.89-45.75c-2.03-16.83-2.49-34.8-2.77-39.81c-0.3-5.35-0.39,4.08-0.21-14.18l-37.23-1.13
		c5.7-67.37,14.11-100.15,22.29-124.02c8.21-23.93,16.2-38.88,27.77-53.21c7.71-9.54,17.01-18.81,28.44-26.77
		c11.71-8.16,25.65-14.95,42.6-19.95c16.85-4.96,36.68-8.15,56.03-9.86c30.01-2.65,58.87-1.73,85.87,0.68
		c30.15,2.69,57.97,7.26,83.84,13.76c26.81,6.74,51.53,15.57,71.16,25.9c17.95,9.44,31.65,20.13,40.93,31.36
		c5.81,7.03,9.88,14.26,12.27,25.29c1.32,6.11,2.13,13.38,0.78,21.86c-1.46,9.22-5.48,19.88-10.39,29.03
		c-6.28,11.7-14.04,20.94-22.19,29.32c-7.2,7.41-14.72,14.14-24.67,22.37c-9.68,8-21.69,17.42-31.95,26.14
		c-19.81,16.82-33.17,31.05-43.51,47.7c-7.51,12.08-13.43,25.43-18.81,38.98c-6.4,16.12-12.04,32.51-18.51,48.7
		c-5.94,14.86-12.57,29.55-19.75,42.03c-7.62,13.24-15.86,24.01-26.97,33.58c-7.86,6.77-17.15,12.94-27.78,17.38
		c-11.55,4.82-24.68,7.6-38.89,8.08c-14.29,0.48-29.67-1.35-44.09-4.74c-18.75-4.4-35.88-11.42-51.26-20.06
		c-15.5-8.71-29.22-19.08-41.44-32.65c-12.21-13.56-22.93-30.33-30.66-47.32c-9.77-21.48-14.79-43.32-17.51-64.65
		c-2.57-20.13-3.09-39.8-3.39-44.38c-0.29-4.46-0.38,5.36-0.21-14.55l203.12-200.17l0,0v41.59l0,0l29.41,44.67
		c39.45,0.18,11.76,0.05,48.31-0.83c15.52-0.37,42.61-0.89,64.59-1.82c22.19-0.94,39.17-2.32,56.73-3.52
		c16.81-1.15,34.16-2.13,52.88-1.36c16.33,0.67,33.71,2.68,48.96,9.82c9.56,4.48,18.28,10.97,25.38,19.17
		c9.13,10.53,15.59,23.86,22.34,56.97c-41.75,4.92-60.44,11.17-75.13,17.31c-12.96,5.41-22.8,10.74-32.29,16.91
		c-8.74,5.68-17.19,12.09-25.16,19.06c-7.47,6.53-14.53,13.56-22.79,23.96c-7.71,9.72-16.47,22.38-23.88,34.1
		c-16.28,25.74-26.1,46.97-34.64,66.85c-6.87,16.01-12.92,31.15-18.76,44.4c-5.84,13.24-11.47,24.6-18.03,34.33
		c-4.15,6.15-8.67,11.65-17.94,18.5c-6.49,4.79-15.3,10.25-24.36,14.43c-17.55,8.1-36.05,11.44-54.41,11.99
		c-19.8,0.59-39.45-2.06-57.99-6.02c-24.49-5.23-47.05-12.76-67.19-21.23c-20.71-8.71-38.86-18.41-53.43-27.79
		c-12.96-8.34-23.1-16.41-31.87-25.43c-5.26-5.41-10.02-11.15-14.67-19.69c-3.33-6.12-6.61-13.66-9.2-22.81
		c-3-10.59-5.08-23.32-6.49-35.68c-2.08-18.19-2.71-35.58-2.78-52.62c-0.09-19.42,0.54-38.38,1.6-58.06
		c1.25-23.28,3.1-47.58,5.45-69.81c3.14-29.68,7.18-55.67,11.45-76.47c3.84-18.69,7.87-33.19,13.17-46.72
		c3.08-7.87,6.59-15.42,12.78-23.83c4.34-5.9,9.99-12.24,18.23-18.21c8.5-6.16,19.76-11.95,31.94-16.8
		c18.2-7.25,38.44-12.42,56.16-16.12c26.94-5.62,48.04-7.81,69.08-8.55c16.27-0.57,32.51-0.27,49.92,1.24
		c18.36,1.6,38.01,4.54,58.18,8.35c22.62,4.27,45.9,9.61,69.24,14.91c28.4,6.44,56.92,12.81,85.54,17.6
		c33.87,5.66,67.88,9.12,78.99,10.48c13.07,1.61-5.54,0.33,28.89,2.7c102.71-10.87,148.99-21.41,185.46-29.81
		c31.01-7.14,54.92-12.74,78.74-17.29c20.13-3.85,40.19-6.94,60.92-8.6c17.04-1.37,34.53-1.76,52.69-0.96
		c16.19,0.71,32.9,2.38,51.49,5.82c17.63,3.26,36.94,8.1,53.25,13.59c21.09,7.1,37.17,15.27,49.2,24.79
		c7.91,6.26,14.06,13.09,20.13,24.08c4.06,7.36,8.09,16.58,11.69,27.55c4.68,14.28,8.63,31.52,11.75,47.56
		c4.77,24.49,7.61,46.16,9.77,67.09c2.14,20.77,3.61,40.8,4.67,61.72c1.13,22.33,1.81,45.66,1.6,66.54
		c-0.24,24.57-1.69,45.75-4.03,62.31c-1.78,12.64-4.08,22.59-8.11,32.92c-2.1,5.38-4.67,10.87-10.06,18.13
		c-4.17,5.61-10.03,12.27-17.03,18.68c-10.56,9.67-23.71,18.75-36.09,26.31c-18.5,11.3-35.3,19.21-51.99,25.79
		c-16.23,6.4-32.36,11.54-49.81,15.47c-18.66,4.2-38.82,7-56.76,7.35c-22.04,0.42-40.71-2.87-57.69-9.76
		c-12.85-5.22-24.72-12.49-33.65-19.87c-8.28-6.85-14.02-13.78-20.36-24.87c-3.27-5.73-6.7-12.57-10.46-20.89
		c-5.37-11.89-11.39-26.81-17.17-40.41c-9.14-21.51-17.65-39.7-27.69-57.09c-10.06-17.41-21.65-34.03-30.95-46.13
		c-11.54-15.03-19.54-23.09-30.06-32.04c-3.97-3.38-8.3-6.88-14.13-10.94c-6.17-4.29-14.02-9.19-22.13-13.54
		c-8.6-4.62-17.5-8.62-26.75-11.98c-9.72-3.53-19.81-6.34-30.18-8.3c-11.32-2.13-22.96-3.25-26.43-3.68
		c-3.85-0.49,2.36-0.14-9.45-0.8l-0.4,94.29c-13.19,2.11-6.5,1.04-9.82,2.14c-3.22,1.07-15.9,4.18-26.75,8.9
		c-10.81,4.7-19.81,11-27.63,17.76c-11.68,10.08-20.75,21.17-29.48,35.24c-8.74,14.1-17.14,31.2-24.98,48.56
		c-7.85,17.37-15.14,35-23.72,51.98c-8.59,16.97-18.47,33.28-30.44,47.92c-12.01,14.68-26.12,27.69-40.89,38.29
		c-14.58,10.46-29.82,18.56-45.09,24.73c-20.08,8.12-40.23,12.89-63.15,14.52c-22.4,1.59-47.44,0.19-70.84-3.45
		c-22.19-3.45-42.9-8.9-62.6-15.17c-26.54-8.45-51.25-18.4-85.66-37.29c-29.36-16.11-65.78-38.73-117.27-99.25
		c-0.5-0.9-0.28-0.5-0.44-0.8c-0.21-0.38-1.04-1.89-2.86-5.35c-8.21-20.59-5.01-12.55-6.35-17.17
		c-2.09-7.2-15.26-45.27-24.68-148.02c0-0.13,0-0.07,0-0.12c0-0.06,0.01-0.27,0.02-0.77c0.23-7,0.11-3.55,0.18-5.18
		c0.07-1.67,0.32-8.72,0.62-15.28c0.3-6.63,0.63-12.77,1.08-19.89c0.69-10.85,1.64-23.99,4.75-57.09c0.34-2.7,0.19-1.5,0.31-2.42
		c0.15-1.16,0.73-5.67,2.12-15.84c6.15-35.52,2.76-15.92,7.06-32.22c3.5-13.24,12.07-50.16,27.04-85.12
		c9.22-21.53,20.87-42.32,33.03-58.29c12.82-16.82,26.21-28.3,40.05-37.61c15.35-10.33,31.25-17.99,47.27-24.39
		c21.17-8.45,42.57-14.69,66.03-19.68c25.17-5.35,52.72-9.25,80.52-10.95c29.53-1.81,59.34-1.13,89.17,1.92
		c31.49,3.21,63,9.06,102.87,17.72c40.49,8.79,89.6,20.49,190.52,33.47l0,20.01c-36-3.17-17.14-1.51-28.91-3.21
		c-10.7-1.55-46.7-5.87-82.66-12.4c-31.72-5.76-63.41-13.23-94.94-20.07c-27.91-6.05-55.7-11.61-82.51-15.11
		c-24.9-3.25-48.96-4.72-72.87-4.49c-26.49,0.26-52.81,2.62-81.68,8.04c-22.95,4.31-47.52,10.55-69.2,18.83
		c-18.58,7.1-35.04,15.69-48.34,25.15c-16.13,11.48-27.62,24.23-36.98,38.36c-12.24,18.47-20.85,39.28-27.77,62.64
		c-7.83,26.45-13.48,56.16-17.81,89.14c-4.06,30.91-6.95,64.67-8.61,100.5c-1.3,28.08-1.85,57.43-0.44,84.98
		c1.14,22.27,3.56,43.37,7.75,61.65c4.64,20.21,11.44,36.99,20.38,51.94c11.3,18.9,26,34.86,44.06,49.58
		c20.46,16.68,45.22,31.76,73.85,44.86c25.33,11.58,53.69,21.61,82.24,28.36c25.43,6.01,51.02,9.42,76.3,8.86
		c25.05-0.56,49.79-5.02,72.3-14.01c18.9-7.55,36.24-18.3,51.01-31.25c19.04-16.69,33.83-37.05,47.6-64.39
		c8.16-16.21,15.97-34.87,23.19-51.4c8.01-18.35,15.3-34.08,25.03-50.33c7.04-11.76,15.36-23.8,23.66-33.64
		c8.88-10.54,17.73-18.58,30.07-26.93c13.85-9.38,32.09-19.17,75.3-27.19l0.4-27.3c-52.98,9.85-75.03,21.7-91.64,32.99
		c-14.41,9.8-24.73,19.18-35.06,31.48c-9.45,11.25-18.91,24.95-26.84,38.23c-10.57,17.71-18.43,34.7-26.93,54.29
		c-7.27,16.73-15.01,35.38-22.94,51.16c-12.19,24.26-24.83,41.78-39.68,55.57c-9.95,9.24-20.89,16.8-34.16,23.04
		c-11.94,5.61-25.76,10.15-40.59,12.8c-14.89,2.66-30.79,3.43-47.1,2.51c-17.65-1-35.77-3.98-55.09-8.96
		c-22.27-5.74-46.13-14.14-67.08-23.18c-31.74-13.7-56.78-28.87-76.33-44.45c-16.88-13.45-29.66-27.2-39.44-43.82
		c-7.19-12.21-12.76-25.97-16.66-43.6c-3.46-15.66-5.61-34.37-6.7-54.07c-1.48-26.84-0.98-55.51,0.2-82.6
		c1.58-36.36,4.4-69.87,8.28-100.1c4.17-32.5,9.57-61.21,16.84-86.12c6.24-21.42,13.86-40.03,24.58-56.18
		c7.6-11.45,16.75-21.66,30.96-31.38c10.66-7.29,24.16-14.32,39.67-20.27c19.57-7.52,42.34-13.33,63.4-17.4
		c28.39-5.48,53.68-7.78,78.81-8.1c22.99-0.29,45.83,1.07,69.66,4.16c25.58,3.32,52.3,8.63,79.32,14.44
		c31.44,6.77,63.28,14.22,95.24,19.99c37.61,6.79,75.41,11.23,87.41,12.92c13.8,1.94-6.54,0.21,31.48,3.44l0-97.54
		c106.4-12.59,158.64-24.76,201.79-34.04c43.26-9.3,77.39-15.68,111.16-19.25c32.23-3.4,64.14-4.23,95.59-2.14
		c29.14,1.94,57.88,6.39,85.59,13.73c25.45,6.74,50.03,15.93,72.83,28.28c20.51,11.11,39.59,24.78,56.13,41.75
		c14.91,15.3,27.77,33.27,38.64,56.6c10.43,22.37,19.03,49.66,25.53,77.42c9.69,41.38,14.71,83.79,18.3,123.59
		c4.38,48.61,6.62,93.32,7.32,130.7c0.72,38.66-0.22,69.47-5.3,100.6c-3.18,19.48-7.98,39.09-17.57,59.91
		c-8.42,18.27-20.53,37.48-36.03,55.36c-15.87,18.31-35.3,35.25-55.65,49.63c-22.5,15.91-46.13,28.7-70.94,39.25
		c-24.15,10.27-49.41,18.41-75.4,24.21c-27.55,6.15-55.92,9.66-81.53,10.6c-26.65,0.97-50.32-0.86-74.3-5.98
		c-18.14-3.87-36.46-9.62-54.55-18.52c-17.8-8.76-35.37-20.58-50.86-35.47c-15.62-15.01-29.12-33.15-33.26-38.04
		c-4.5-5.31,2.03,5.01-10.51-14.81c-32.37-74.87-47.22-107.87-51.04-116.4c-3.04-6.8,0.94,1.96-8.03-17.78
		c-18.21-27.11-29.87-37.89-39.67-45.17c-9.28-6.89-16.91-10.65-25.71-13.16c-6.87-1.96-14.44-3.16-16.33-3.6
		c-2.01-0.46,2.42-0.06-6.17-0.84v12.45c-13.02,1.7-6.45,0.84-9.6,1.95c-3.09,1.09-15.54,4.07-26.6,9.72
		c-10.89,5.57-20.42,13.73-27.7,21.77c-7.21,7.96-12.2,15.81-16.56,23.3c-8.64,14.84-14.76,28.25-22.31,46.38
		c-7.48,17.94-16.35,40.51-26.32,62.47c-9.93,21.87-20.94,43.16-35.04,62.09c-14.17,19.03-31.45,35.69-51.2,48.92
		c-19.7,13.2-41.85,22.99-63.94,29.59c-21.64,6.46-43.21,9.84-64.19,11.47c-26.85,2.08-52.72,1.29-81.33-2.61
		c-27.07-3.69-56.59-10.17-85.28-19.84c-26.76-9.02-52.8-20.8-77.27-35.47c-22.49-13.48-43.65-29.39-61.97-47.24
		c-16.92-16.49-31.41-34.63-44.58-58.71c-14.16-25.88-26.79-58.62-33.57-131.11c-0.01-2.22-0.01-1.25,0-1.96
		c0-0.92,0-4.68,0.08-13.33c0.04-2.45,0.02-1.39,0.04-2.17c0.02-1.02,0.1-5.18,0.37-14.77c1.9-38.55,0.76-15.41,1.87-36.56
		c0.74-14.08,2.48-47.82,4.73-84.77c2.09-34.26,4.61-71.29,12.08-142.42c0.6-4.19,0.3-2.06,0.47-3.21c0.17-1.11,0.78-5.3,1.39-9.17
		c0.58-3.76,1.15-7.22,1.85-11.19c1.03-5.91,2.33-12.96,6.03-30.39c0,0,0-0.01,0-0.01c7.59-27,3.64-12.95,6.73-20.12
		c2.85-6.61,11.67-31.23,23.09-52.66c12.62-23.69,28.4-43.49,47.68-60.63c21.81-19.39,48.12-35.37,77.97-47.7
		c26.16-10.8,55.04-18.8,82.72-23.8c29.48-5.32,57.59-7.24,85.91-6.92c29.69,0.34,59.61,3.16,89.5,7.79
		c30.8,4.78,61.57,11.48,100.34,20.15c39.34,8.8,86.91,19.61,184.63,30.07c32.74-2.5,16.25-1.24,24.79-2.41
		c8.42-1.15,41.16-4.65,73.83-10.14c31.71-5.33,63.37-12.52,95.33-19.63c30.47-6.78,61.22-13.48,91.4-18.16
		c28.34-4.4,56.18-7.02,83.47-7.56c31.15-0.62,61.58,1.46,94.16,7.5c28.81,5.35,59.32,13.8,87.01,25.83
		c25.05,10.89,47.81,24.71,70.66,45.73c24.81,22.82,49.75,54.11,77.91,132.66c0,0,0,0.01,0,0.01c0.83,3.72,0.42,1.89,0.6,2.74
		c0.19,0.88,1,4.6,1.72,8.04c0.74,3.54,1.37,6.78,2.07,10.53c1.12,6.03,2.41,13.39,5.34,32.65c3.95,38.24,1.59,15.36,3.42,36.11
		c1.23,13.94,4.35,47.55,7.06,84.56c2.51,34.27,4.66,71.45,8.2,143.1c0.08,2.51,0.04,1.39,0.07,2.27c0.03,1.09,0.15,5.27,0.34,14.64
		c0.03,2.27,0.02,1.26,0.02,2.05c0.01,0.98,0.05,4.76,0.05,13.24c-0.86,24.38-0.42,11.75-1.4,18.45
		c-0.91,6.23-3.06,29.19-7.77,50.44c-5.1,22.99-13.19,43.97-24.14,63.33c-11.91,21.06-27.21,40.21-44.72,57.34
		c-18.77,18.36-40.1,34.39-64.19,48.57c-25.46,14.99-54.02,27.91-85.76,37.8c-24.8,7.73-51.54,13.59-76.52,16.91
		c-25.5,3.39-49.17,4.11-72.87,2.61c-23.75-1.5-47.55-5.24-70.47-11.99c-22.8-6.72-44.75-16.42-64.29-29.51
		c-19.63-13.15-36.83-29.73-52.02-50.7c-15.35-21.19-28.64-46.88-41.91-77.88c-6.69-15.64-13.37-32.63-19.24-46.65
		c-5.92-14.16-11-25.29-16.81-35.99c-5.89-10.87-12.53-21.3-22.91-32.58c-10.58-11.5-25.05-23.88-62.45-32.83c0,0,0-12.45,0-12.45
		c-31.61,6.34-44.83,14.79-55.73,24.76c-10.32,9.44-18.57,20.23-22.41,24.92c-6.32,7.72-0.67-1.17-9.75,13.11
		c-33.18,75.69-47.77,108.66-51.39,116.85c-2.8,6.34,0.97-2.16-7.68,17.33c-41.53,55.81-69.21,74.42-93.6,86.83
		c-22.46,11.43-42.15,17.61-62.72,21.52c-20.39,3.88-41.66,5.52-64.87,4.8c-23.58-0.73-49.18-3.91-73.11-8.72
		c-31.63-6.37-60.34-15.62-86.5-26.7c-25.14-10.65-47.93-22.98-69.57-38.19c-20.42-14.35-39.81-31.25-56.03-49.95
		c-16.67-19.22-29.98-40.33-39.45-63.2c-8.56-20.67-13.97-42.78-17.04-66.78c-3-23.44-3.77-48.7-3.43-77.2
		c0.39-32.48,2.23-69.18,4.72-103.16c3.96-54.28,9.56-101.58,17.91-142.61c8.08-39.67,18.73-73.48,32.69-101.51
		c11.43-22.95,25.07-42.02,45.06-60.08c13.41-12.11,29.67-23.77,49.21-33.92c20.38-10.58,44.32-19.53,69.13-26.13
		c27.52-7.32,56.11-11.74,84.69-13.72c31.77-2.2,63.53-1.37,94.86,1.83c34.12,3.48,67.73,9.77,100.84,16.68
		c35.74,7.46,70.91,15.66,105.7,21.84c36.46,6.48,72.51,10.74,81.57,12.09c9.04,1.34-8.77-0.22,26.89,2.91c0,0,0,49.59,0,49.59
		c33.83-3.34,16.79-1.66,25.75-3.06c8.83-1.39,42.9-5.77,77.1-12.1c32.4-6,64.93-13.74,97.76-20.66
		c30.91-6.51,62.08-12.3,94.65-15.49c30.36-2.97,61.93-3.69,94.78-1.28c24.87,1.83,50.47,5.46,74.17,10.55
		c21.35,4.59,41.15,10.36,58.31,16.8c16.29,6.11,30.22,12.82,42.21,19.87c19.48,11.45,33.87,23.78,50.41,45.94
		c20.37,27.29,44.01,69.47,68.42,174.59c0.37,2.66,0.21,1.5,0.33,2.37c0.15,1.12,0.77,5.61,2.1,15.89c0.73,7.09,0.37,3.58,0.53,5.28
		c0.16,1.73,0.87,8.87,1.47,15.54c0.61,6.66,1.11,12.86,1.64,20.04c0.79,10.81,1.63,23.86,2.99,56.59c0,0.13,0,0.07,0,0.12
		c0,0.06,0.01,0.27,0.02,0.77c-0.41,27.96-0.21,14.2-1.51,27.32c-1.35,13.54-4.3,55.72-29.51,137.87c-0.47,0.91-0.27,0.51-0.43,0.81
		c-0.2,0.39-1.01,1.91-2.88,5.34c-15.97,21.46-8.62,11.58-12.44,15.41c-4.48,4.49-24.32,27.8-50.77,48.91
		c-19.62,15.66-42.88,30.1-64.77,41.53c-23.08,12.04-44.65,20.73-67.99,28.4c-23.88,7.84-49.62,14.62-77.44,18.48
		c-21.16,2.94-43.52,4.2-63.83,2.68c-20.58-1.54-39.07-5.92-56.78-12.61c-17.66-6.68-34.54-15.66-50-26.62
		c-15.46-10.96-29.5-23.9-41.47-38.55c-11.96-14.63-21.86-30.96-30.9-49.04c-9.03-18.05-17.22-37.85-26.94-58.9
		c-6.51-14.1-13.72-28.77-21.31-40.98c-7.62-12.26-15.63-22.05-27.33-32.36c-12.04-10.61-27.98-21.78-66.33-31.2
		c0,0,0-29.75,0-29.75c14.7,1.67,6.92,0.79,11.66,1.93c4.21,1.02,18.35,3.65,30.7,7.88c11.54,3.95,21.53,9.31,30.46,15.27
		c12.33,8.22,22.65,17.58,31.95,28.4c8.38,9.75,15.95,20.69,22.48,31.41c11.02,18.08,19.1,35.51,28.81,57.91
		c7.53,17.38,16.05,37.74,25.39,55.29c11.13,20.91,23.42,37.83,39.16,52.25c15.87,14.55,35.24,26.57,55.28,34.68
		c22.49,9.11,45.81,13.32,70.14,13.95c27.51,0.72,56.3-3.11,87.43-11.15c27.49-7.09,56.79-17.46,85.01-31.34
		c22.31-10.98,43.93-24.15,61.66-38.51c16.04-12.99,28.9-26.95,38.54-40.9c11.92-17.25,18.91-34.49,23.81-52.67
		c6.25-23.2,9.09-47.93,10.28-75.25c1.27-29.15,0.67-61.25-1.32-96.28c-1.76-30.94-4.61-64.17-9.62-98.4
		c-3.83-26.17-8.92-52.93-16.13-76.87c-5.94-19.74-13.32-37.57-21.86-52.25c-9.97-17.13-21.52-29.96-35.21-40.9
		c-17.23-13.76-37.85-24.52-61.63-33.19c-21.46-7.82-45.5-13.93-68.34-18.03c-24.59-4.41-47.8-6.49-70.65-6.94
		c-25.82-0.52-51.2,1.04-76.46,4.22c-28.64,3.61-57.14,9.31-93.76,17.41c-40.29,8.91-90.4,20.73-197.77,33.63c0,0,0,27.94,0,27.94
		c113.35-13.69,165.01-25.95,205.99-35.08c35.63-7.93,63.18-13.49,91-17c23.63-2.98,47.45-4.48,72.06-3.97
		c21.14,0.43,42.86,2.34,65.88,6.43c21.45,3.81,44.04,9.51,63.84,16.61c21.64,7.77,39.94,17.21,54.89,29.17
		c11.09,8.87,20.34,19.12,28.75,34.11c6.66,11.88,12.79,26.73,17.85,43.36c6.75,22.17,11.59,47.49,15.27,71.98
		c5.19,34.55,8.05,67.44,9.85,97.68c2.09,35.19,2.73,66.8,1.61,94.93c-1.05,26.17-3.64,49.33-9.23,70.41
		c-4.17,15.7-10.01,30.25-20.77,45.39c-7.9,11.11-18.46,22.55-32.17,33.56c-15.43,12.39-34.85,24.24-54.72,34.15
		c-27.04,13.49-54.92,23.39-78.71,30.19c-27.55,7.87-49.63,11.57-71.62,12.44c-14.52,0.58-28.99-0.08-44.36-3.19
		c-13.34-2.7-27.34-7.25-40.87-14.1c-12.5-6.33-24.58-14.63-35.37-25.32c-10.75-10.65-20.2-23.68-28.82-39.21
		c-9.57-17.26-18.09-37.6-25.58-54.9c-11.17-25.81-20.04-44.84-31.71-64.09c-7.59-12.53-16.38-25.17-25.91-36.31
		c-11.16-13.05-23.35-24.06-37.74-33.67c-10.79-7.21-22.83-13.63-36.67-18.36c-15.13-5.18-32.41-8.33-37.77-9.6
		c-6.18-1.46,3.48-0.4-14.56-2.38c0,0,0-37.25,0-37.25c6.91-34.07,13.53-47.79,22.87-58.62c7.27-8.43,16.21-15.11,26-19.72
		c15.61-7.35,33.41-9.42,50.14-10.11c19.17-0.79,36.93,0.22,54.15,1.4c17.99,1.23,35.38,2.65,58.1,3.62
		c22.51,0.96,50.26,1.49,66.15,1.87c37.43,0.91,9.07,1.04,49.47,0.86l57.33,113.84c-2.59-0.53-1.64-0.34-1.38-0.31
		c0.44,0.04-1.18-0.41-2.78-1.08c-4.92-2.04-9.74-6.03-17.3-14.69c-6.11-7-14.02-17.04-21.94-27.89
		c-7.65-10.48-15.31-21.7-21.99-36.12c-2.66-5.74-5.17-11.99-6.22-16.39c-1.3-5.43-0.38-8.03,1.01-10.25
		c3.9-6.21,11.53-9.4,27.64-8.18c8.74,0.66,19.97,2.62,27.96,5.35c8.1,2.77,12.86,6.32,17.02,10.53
		c8.46,8.55,14.48,19.78,16.36,43.83c0.76,9.71,0.84,21.51-1.94,32.7c-1.9,7.65-5.14,15.02-16.44,22.49l24.28,88.39
		c-11.59,4.75-5.17,2.12-11.07,3.49c-4.75,1.1-17.46,4.8-30.18,4.24c-7.61-0.33-15.23-2.19-20.16-4.37
		c-5.88-2.59-7.96-5.64-9.75-8.81c-5.49-9.73-8.21-20.57-11.86-43c-2.21-13.58-4.76-31.41-8.86-46.54
		c-4.24-15.65-10.13-28.42-20.03-40.86c-8.82-11.09-20.82-21.92-36.69-34.01c-7.13-5.43-15.04-11.11-20.84-16.71
		c-3.33-3.22-5.96-6.41-7.4-8.89c-1.84-3.19-1.71-5.22-1.38-7c0.96-5.21,3.6-8.33,8.13-11.76c7.54-5.72,20.35-12.32,38.06-17.83
		c15.8-4.91,35.51-8.94,55.16-9.52c16.73-0.49,33.42,1.52,48.01,6.58c14.56,5.05,27.03,13.12,37.27,23.14
		c10.78,10.54,19.08,23.23,25.25,37.09c6.39,14.38,10.48,30.02,12.4,46.27c1.89,15.98,1.68,32.53-2.18,52.64
		c-3.74,19.47-10.9,42.29-43.89,75.84l105.2-84.91c0.18,18.26,0.09,8.83-0.21,14.18c-0.28,5.01-0.74,22.98-2.77,39.81
		c-1.98,16.44-5.47,31.78-10.89,45.75c-6.7,17.25-16.35,32.4-31.2,46.47c-14.49,13.74-33.93,26.43-57.4,34.49
		c-14.99,5.14-31.63,8.39-45.83,8.22c-14.13-0.17-25.84-3.72-35.59-9.58c-11.19-6.71-19.81-16.45-26.79-27.09
		c-7.52-11.46-13.13-23.97-18.23-36.68c-6.54-16.28-12.26-32.9-19.45-50.78c-6.57-16.33-14.38-33.71-25.03-49.87
		c-11.61-17.61-26.59-33.77-45.88-50.55c-11.53-10.03-24.59-20.28-36.09-30.02c-11.08-9.39-20.71-18.32-28.46-28.72
		c-5.53-7.42-10.11-15.59-12.02-22.28c-2.52-8.77-0.45-14.98,2.51-20.34c6.02-10.9,15.75-18.31,29.71-25.39
		c16.34-8.29,38.48-16.12,63.47-22.28c24.06-5.93,50.75-10.3,79.05-12.79c23.33-2.05,47.76-2.83,71.15-1.26
		c19.58,1.32,38.43,4.29,54.85,9.83c16.85,5.69,31.15,14.09,42.67,24.88c12.98,12.15,22.43,27.34,30.75,48.7
		c8.83,22.7,16.39,52.37,21.69,115.29l37.23-1.13c0.17,19.91,0.09,10.09-0.21,14.55c-0.3,4.59-0.82,24.25-3.39,44.38
		c-2.72,21.33-7.73,43.17-17.51,64.65c-7.74,17-18.45,33.76-30.66,47.32c-12.22,13.57-25.93,23.93-41.44,32.65
		c-15.38,8.64-32.51,15.66-51.26,20.06c-14.43,3.39-29.81,5.22-44.09,4.74c-14.21-0.48-27.34-3.26-38.89-8.08
		c-10.63-4.44-19.92-10.61-27.78-17.38c-11.1-9.57-19.35-20.33-26.97-33.58c-7.18-12.48-13.82-27.17-19.75-42.03
		c-6.47-16.19-12.11-32.58-18.51-48.7c-5.38-13.55-11.3-26.9-18.81-38.98c-10.35-16.65-23.71-30.88-43.51-47.7
		c-10.27-8.72-22.27-18.14-31.95-26.14c-9.96-8.23-17.47-14.96-24.67-22.36c-8.15-8.38-15.91-17.62-22.19-29.32
		c-4.91-9.15-8.92-19.81-10.39-29.03c-1.35-8.48-0.55-15.75,0.77-21.86c2.38-11.03,6.47-18.26,12.28-25.28
		c9.29-11.23,22.99-21.92,40.93-31.36c19.63-10.33,44.35-19.15,71.16-25.9c25.87-6.5,53.69-11.07,83.84-13.76
		c27-2.41,55.86-3.32,85.87-0.68c19.35,1.71,39.18,4.89,56.03,9.86c16.95,4.99,30.89,11.78,42.6,19.95
		c11.42,7.96,20.72,17.23,28.44,26.77c11.58,14.33,19.57,29.28,27.77,53.21c8.18,23.86,16.59,56.65,22.29,124.02"/>
</g>
</svg>
