<?xml version="1.0" encoding="UTF-8"?>
<svg xmlns="http://www.w3.org/2000/svg" xmlns:xlink="http://www.w3.org/1999/xlink" width="300px" height="280px"
     viewBox="0 0 800 800" version="1.1">
    <g id="surface1">
        <path style="fill:none;stroke-width:0.1;stroke-linecap:butt;stroke-linejoin:miter;stroke:rgb(0%,0%,0%);stroke-opacity:1;stroke-miterlimit:10;"
              d="M 251.180439 120.080189 C 251.180439 120.099566 251.180439 120.099566 251.180439 120.099566 C 251.180439 120.099566 251.180439 120.099566 251.180439 120.089877 C 251.180439 120.089877 251.190127 120.130016 251.190127 120.130016 C 251.490473 122.149392 251.469712 122.020672 251.590127 122.870498 C 252.470403 130.549385 252.539607 131.249731 252.769365 137.019969 C 252.769365 137.129311 252.769365 137.119623 252.769365 137.159761 C 251.999815 148.600583 250.809505 152.690546 248.129922 159.770125 C 247.609507 161.220643 248.439956 159.379814 247.0102 162.539673 C 246.080097 164.120295 246.139612 164.020641 245.739612 164.669776 C 237.079411 174.030322 231.159692 177.490527 226.420595 179.969418 C 220.899492 182.859382 216.979772 184.430315 212.780467 185.770106 C 202.589471 189.289827 190.350034 189.969411 180.53966 184.579796 C 157.670473 172.719597 164.139672 146.700239 141.73 142.420657 C 130.510631 145.43934 127.919629 149.890548 123.540394 158.529988 C 118.989532 168.979807 113.569467 179.130665 103.159786 184.420626 C 88.930039 192.229617 72.589566 187.659378 58.790268 180.989487 C 55.259475 179.22063 51.479547 177.01994 48.269861 174.62963 C 43.910002 171.379805 40.579901 167.779808 39.82004 167.079462 C 39.169521 166.480155 40.419348 168.020638 37.709315 164.690537 C 36.769523 163.119604 36.830423 163.220642 36.440112 162.560435 C 31.959838 149.890548 31.299631 143.370137 31.029735 141.320312 C 30.769528 139.37014 30.859493 141.460104 30.679562 137.16945 C 30.679562 137.060107 30.679562 137.069796 30.679562 137.029657 C 31.060185 129.389525 31.169527 128.600598 31.860184 122.880187 C 32.149457 120.849738 32.13008 120.979842 32.260184 120.139704 C 32.260184 120.139704 32.269873 120.099566 32.269873 120.099566 C 32.269873 120.099566 32.269873 120.110639 32.269873 120.110639 C 32.269873 120.089877 32.269873 120.099566 32.269873 120.089877 C 38.170214 100.300273 42.72938 92.110659 52.819338 85.820006 C 65.02971 78.819319 81.23039 77.299597 95.119654 78.87053 C 105.519646 80.00963 115.400608 82.750112 125.540392 84.53973 C 130.930008 85.490595 136.290558 86.139729 137.670487 86.35011 C 139.069794 86.56049 136.3999 86.309971 141.720311 86.809625 C 170.260083 83.800631 178.189489 77.929355 202.049679 78.390254 C 215.109877 79.020011 229.540316 83.119662 238.769375 92.910659 C 241.620584 95.990241 243.969371 99.699581 245.850339 103.950097 C 247.879403 108.539713 249.37006 113.749398 249.930613 115.490573 C 250.629574 117.569464 249.94999 114.520331 251.180439 120.080189 L 248.340303 126.530011 C 239.699478 96.399929 216.83998 90.889899 190.439999 94.530035 C 177.220631 96.390241 164.470468 100.070515 151.490546 101.249753 C 137.739692 102.700271 124.359771 100.799926 111.19023 97.890586 C 90.830383 93.519655 66.899605 89.150108 49.400656 103.019994 C 41.640108 109.389539 35.820043 118.570155 35.479559 128.880182 C 35.370216 141.469793 42.269865 154.160441 53.980583 159.689848 C 61.829712 163.839326 73.599946 167.299531 81.63039 167.779808 C 89.850453 168.430326 95.749411 167.050397 102.059441 162.260089 C 109.929331 156.189505 114.629674 146.820654 121.569461 139.649725 C 126.17015 135.150074 130.290562 131.31063 135.410281 128.939698 C 145.659409 124.54939 155.559748 132.600595 162.279466 139.900244 C 172.120289 151.079474 179.299523 166.899532 195.630307 168.020638 C 209.11957 169.100222 225.299489 163.609569 236.110554 155.609575 C 242.070411 150.43034 246.080097 143.060103 247.630268 135.299555 C 248.129922 132.520318 248.229576 129.630355 248.309853 128.820667 C 248.390129 127.950079 248.439956 129.47949 248.349991 126.530011 L 201.649679 119.42967 C 209.079432 118.600605 211.980468 120.740396 214.889808 125.119632 C 216.830291 128.49956 217.190152 132.459419 212.629602 132.930006 C 208.120263 133.640041 195.419926 130.679489 195.450376 125.209597 C 195.540341 123.079495 199.349335 120.629669 200.650372 119.959774 C 201.09051 119.699566 200.48013 119.990224 201.649679 119.439359 L 190.949341 114.440055 C 203.339643 111.749399 209.11957 112.449745 212.939636 113.379848 C 223.349317 115.5404 230.07042 127.479491 225.130631 137.100246 C 219.659355 146.840031 204.809539 145.010274 196.730652 139.52931 C 194.38048 137.950072 191.84069 135.770143 189.829619 133.940386 C 186.369414 130.790216 184.48983 128.690563 182.809555 126.399907 C 182.059382 125.379839 181.349348 124.329321 180.97011 123.190221 C 179.130665 117.929325 187.540347 115.749396 190.960414 114.420677 L 141.76045 80.189561 C 169.969426 77.119667 177.540354 71.450467 201.019922 71.310674 C 213.460051 71.630397 227.720248 74.459461 237.739618 82.189559 C 247.710545 89.860142 250.989436 103.000617 252.730611 115.150089 C 254.200506 125.839354 254.859329 137.01028 254.459329 147.299546 C 254.009503 155.999886 252.740299 163.839326 247.919542 171.220636 C 240.610204 182.380489 226.039973 189.310588 213.639982 192.730655 C 202.250371 195.869753 191.370102 196.200548 180.690525 190.939653 C 174.070461 187.720278 168.740361 182.110593 165.090537 175.590183 C 161.220643 168.920292 159.31061 162.120296 155.670474 156.210266 C 153.909922 153.230338 151.230339 150.350063 147.860099 148.639337 C 145.999893 147.699546 143.919618 147.130688 143.389514 146.939685 C 142.849722 146.740377 143.959756 146.929996 141.770138 146.549374 C 130.380527 149.670479 127.990218 155.199886 123.959771 163.950053 C 119.550085 175.109906 112.979848 186.380486 102.290583 191.209549 C 92.499586 195.930652 81.379871 195.869753 70.769498 193.029616 C 57.00065 189.190173 42.449796 182.170109 34.949455 170.139668 C 30.849804 163.500226 29.420048 155.670474 29.050498 147.550065 C 28.620048 137.569449 29.339771 126.409596 30.589597 116.700261 C 32.509319 103.270513 35.410355 89.929346 46.600658 81.509975 C 52.880238 76.799944 61.609643 74.059461 69.429707 72.650466 C 78.579873 70.989567 86.949417 70.949429 96.130033 72.099601 C 105.89058 73.349427 115.9404 76.149425 125.620669 77.919666 C 131.000596 78.889908 136.340385 79.540426 137.730003 79.749423 C 139.140383 79.959803 136.480177 79.720357 141.76045 80.200633 L 127.590218 158.570126 C 120.570154 174.579803 121.029669 173.519596 118.070502 180.20056 C 107.159783 195.029615 97.259444 198.48982 82.409628 198.439993 C 61.730059 197.490513 38.780594 188.129966 30.070566 168.330673 C 25.169532 156.009574 26.870569 141.839342 27.529392 128.489871 C 29.090636 111.230368 30.610358 90.729345 42.94945 79.450461 C 55.519683 68.390261 74.700291 66.250471 90.970176 67.850469 C 102.210306 68.97988 113.289882 72.099601 124.269805 74.059461 C 130.149386 75.100291 135.959762 75.789564 137.419969 76.009633 C 138.880175 76.229702 136.009589 75.980567 141.76045 76.480221 C 172.709908 73.349427 181.689832 66.499605 207.620609 67.550124 C 220.14932 68.470538 233.150002 71.940432 242.210203 81.05046 C 252.219884 91.410314 254.089779 108.769471 255.500159 122.579841 C 256.210193 130.420666 256.570054 137.62066 256.679397 143.649722 C 256.700158 153.680164 256.769362 160.669779 252.989434 169.519599 C 242.62958 191.190171 212.070433 201.729956 189.500207 197.419925 C 183.320281 196.139649 177.259386 193.310585 172.5106 188.719585 C 169.990187 186.30021 167.819946 183.379796 167.150051 182.589486 C 166.420639 181.729971 167.479462 183.400558 165.460086 180.20056 C 158.549365 164.279464 158.989503 165.34936 155.94037 158.570126 C 153.00058 154.200579 151.130685 152.459404 149.540375 151.289855 C 148.04003 150.179821 146.809581 149.569441 145.400586 149.169441 C 144.290552 148.849718 143.069791 148.660099 142.769446 148.589511 C 142.449723 148.520306 143.159757 148.579822 141.770138 148.449718 C 134.489867 149.810271 132.309938 152.589508 129.169456 156.459401 C 128.149387 157.699538 129.060113 156.269782 127.599907 158.570126 L 92.560486 114.430366 C 80.170183 111.739711 74.390257 112.440056 70.570191 113.370159 C 60.16051 115.529327 53.439407 127.469803 58.38058 137.090557 C 63.850472 146.830342 78.700288 145.000586 86.780559 139.519621 C 89.129346 137.940383 91.670521 135.760454 93.680208 133.929314 C 97.140413 130.780527 99.019997 128.679491 100.700272 126.390219 C 101.450445 125.37015 102.160479 124.319632 102.539717 123.180533 C 104.380546 117.919637 95.96948 115.739708 92.549413 114.409605 L 81.850459 119.410293 C 74.419323 118.579844 71.519671 120.719635 68.61033 125.100254 C 66.669847 128.480183 66.309986 132.440041 70.870536 132.910629 C 75.379876 133.620663 88.080212 130.660112 88.049762 125.19022 C 87.959797 123.060117 84.149419 120.610292 82.849766 119.940397 C 82.409628 119.680189 83.020008 119.969462 81.850459 119.419982 L 59.670545 106.26013 C 49.619341 113.270505 44.53976 120.399912 44.419345 130.510631 C 44.759829 137.900245 48.679549 145.169444 54.499614 149.689856 C 63.150127 155.460094 81.270529 161.469778 91.140418 158.219953 C 98.459443 155.72999 103.019994 148.510618 107.659437 142.359757 C 110.449746 138.639345 113.169467 135.339693 115.980538 132.48018 C 131.969454 116.2795 148.129995 114.449743 165.209568 130.229662 C 170.870463 135.330005 175.20956 141.670484 179.869764 147.649719 C 185.890521 155.460094 191.909894 160.399883 202.03999 159.169434 C 210.570088 158.319607 220.39015 154.970129 227.540318 150.219959 C 234.610209 145.180517 239.310551 137.770141 239.100171 129.07949 C 238.640656 116.660122 226.899488 106.44006 215.450361 103.770166 C 207.19016 101.770168 200.640683 101.980548 191.900205 103.28989 C 171.169425 106.970164 149.400583 112.870506 129.710632 110.380542 C 110.669815 108.499575 91.550106 100.139719 72.13974 103.039371 C 68.040089 103.710651 63.8394 104.989542 62.790265 105.230373 C 61.739747 105.479508 63.810334 104.700269 59.670545 106.26013 L 24.499636 151.640027 C 24.480259 153.469784 24.489947 153.349369 24.489947 154.099541 C 26.22005 170.449702 29.020048 176.160425 37.09063 184.700211 C 49.900309 197.000548 69.039396 202.80954 86.399937 201.649679 C 102.690582 200.539646 114.679501 192.430309 120.949392 177.140355 C 123.850428 170.85939 125.620669 165.079464 128.790217 159.590195 C 130.350078 156.790197 132.790214 153.930683 135.929312 152.330684 C 137.710626 151.419958 139.720313 150.939682 140.219967 150.759751 C 140.729309 150.579821 139.670486 150.719613 141.770138 150.449717 C 152.449715 152.979819 154.610267 158.769434 158.23933 166.799878 C 160.840021 173.230323 164.290537 181.829625 168.099531 186.870451 C 175.019941 196.750029 186.610244 201.069749 198.210235 201.729956 C 219.019909 202.730647 242.799822 193.850377 253.670402 175.419941 C 255.440643 172.30022 256.740296 168.920292 257.559673 165.209568 C 258.319534 161.789501 258.669707 158.080161 258.809499 157.07947 C 258.970053 155.999886 258.899464 158.040023 259.040641 154.110614 C 259.040641 152.300234 259.040641 152.42065 259.029568 151.649716 C 258.98943 149.649717 258.98943 149.779821 258.960364 148.920306 C 257.980434 129.100251 257.469708 122.130014 255.949986 106.399922 C 255.190125 101.50996 255.149986 101.240064 254.380437 97.699582 C 247.919542 80.210322 242.399822 74.719668 230.430281 68.939742 C 221.249665 65.020022 210.949326 63.349435 201.220614 63.569504 C 186.600555 63.720369 172.030324 68.419327 157.6594 70.880225 C 152.3902 71.760501 147.119615 72.329359 145.760447 72.510674 C 144.380517 72.700293 147.039339 72.489912 141.76045 72.899601 C 113.220678 70.239395 105.24975 64.350126 81.38956 63.550126 C 67.710677 63.370196 52.049789 66.98957 41.640108 76.189564 C 38.530076 78.949423 35.990285 82.149421 33.950148 85.959799 C 32.109319 89.420004 30.690635 93.379862 30.229736 94.449758 C 29.730082 95.609619 30.369528 93.339724 29.140463 97.689894 C 28.17991 102.27951 28.099633 102.840063 27.56953 106.390233 C 25.529393 126.110634 25.429739 133.109937 24.560536 148.910618 C 24.509325 150.939682 24.509325 150.809578 24.489947 151.640027 "
              transform="matrix(2.822268,0,0,2.822268,0,0)"/>
    </g>
</svg>
