<svg xmlns="http://www.w3.org/2000/svg" xmlns:xlink="http://www.w3.org/1999/xlink" version="1.1" id="layer" x="0px" y="0px" style="enable-background:new -153 -46 652 652;" xml:space="preserve" viewBox="-17.65 29.8 382.71 500.1">
<style type="text/css">
	.st0{fill:#1D1D1B;}
	.st1{fill:#FFFFFF;}
	.st2{fill:#6A277E;}
	.st3{fill:url(#SVGID_1_);}
</style>
<path class="st0" d="M173.5,529.9c67.3-78.9,144.3-170.8,166.4-213.1c3-5.4,6-11,8.6-17c0.6-1.2,0.9-1.8,0.9-1.8  c8.9-20.8,14.3-43.7,15.5-68.2c4.2-106.2-78.3-195.5-184.2-200h-13.4c-106.6,4.8-189,94.1-184.8,200.3c0.9,24.1,6.5,47,15.5,68.2  l0.9,1.8c2.7,6,5.4,11.6,8.6,17C29.4,359.1,106.5,451,173.5,529.9"/>
<path class="st1" d="M103.8,180.5c-6,16.4-19.6,26.2-36.6,26.2c-21.1,0-38.7-17.6-38.7-38.7c0-22,17-39,39-39  c17,0,31,10.1,36.3,26.8H84.2c-4.5-7.4-9.2-10.7-17-10.7c-12.2,0-21.1,9.5-21.1,22.6c0,13.4,9.2,23.2,21.7,23.2  c7.1,0,12.2-3.3,16.4-10.1h19.6V180.5L103.8,180.5z M188.4,168c0,21.4-17.3,38.7-39,38.7c-21.1,0-38.7-17.6-38.7-38.7  c0-21.4,17.6-39,38.7-39C171.4,128.7,188.3,146,188.4,168 M128.2,168c0,12.5,9.2,22.6,21.1,22.6c12.2,0,21.4-9.8,21.4-22.6  c0-12.8-9.5-22.9-21.7-22.9C137.8,144.8,128.2,155.2,128.2,168 M200.6,107h17.6v97.3h-17.6V107z M234.2,107h17.6v16.1h-17.6V107z   M234.2,131.4h17.6v72.9h-17.6V131.4z M279.4,181.4c1.8,6.5,4.5,9.2,9.5,9.2c4.5,0,7.7-3.3,7.7-7.4c0-4.5-2.7-6.5-12.5-9.5  c-15.2-5.1-20.2-11-20.2-22.6c0-12.2,11-22.3,24.4-22.3c13.1,0,23.2,9.5,23.8,22.3h-17.3c-0.6-4.2-3-6.3-6.8-6.3  c-3.9,0-6.8,2.7-6.8,6.3c0,2.4,1.2,4.2,3.6,5.4c1.8,0.6,1.5,0.6,8.9,3c14.6,4.5,20.2,10.7,20.2,22c0,14.3-11.9,25.6-27.1,25.6  c-8,0-16.7-4.5-21.1-10.7c-2.7-3.9-3.9-7.4-4.5-14.6h18.2L279.4,181.4L279.4,181.4z M280,230.5l8.9-9.5h7.4L280,230.5z M152.3,249.5  c-1.2-2.4-2.4-4.5-4.5-6.3c-1.8-1.8-3.9-3.3-6.2-4.5c-2.4-1.2-5.1-1.5-7.7-1.5c-2.7,0-5.4,0.6-7.7,1.5c-2.4,1.2-4.5,2.4-6.3,4.2v-6  h-5.9v64.6h6v-44.3c0-2.1,0.3-3.9,1.2-5.7c0.6-1.8,1.8-3.3,3-4.5c1.2-1.2,3-2.4,4.5-3c1.8-0.9,3.6-1.2,5.4-1.2  c2.1,0,3.9,0.3,5.4,1.2c1.8,0.9,3.3,1.8,4.5,3c1.2,1.2,2.4,2.7,3,4.5c0.9,1.8,1.2,3.6,1.2,5.4v1.8h6V257  C153.8,254.6,153.2,251.9,152.3,249.5L152.3,249.5z M169.6,237.3h6v64.6h-6V237.3z M169.6,217.4h6v6.8h-6V217.4z M233.9,237.3  L216,290.6l-17.6-53.3h-6.2l21.4,64.6h5.1l21.4-64.6H233.9z M314.5,269.5c0-4.2-0.9-8.3-2.4-12.5c-1.8-3.9-3.9-7.4-6.8-10.4  c-3-3-6.3-5.4-10.1-7.1s-8.3-2.7-12.8-2.7c-4.5,0-8.6,0.9-12.8,2.7c-3.9,1.8-7.4,4.2-10.1,6.8c-3,3-5.1,6.2-6.8,10.1  c-1.8,3.9-2.4,8-2.4,12.5c0,4.5,0.9,8.6,2.7,12.5c1.8,3.9,4.2,7.4,6.8,10.1c3,3,6.2,5.4,10.1,6.8c3.9,1.8,8,2.7,12.5,2.7  c4.2,0,8-0.6,11.6-2.1c3.6-1.5,6.8-3.6,9.5-6c2.7-2.4,5.1-5.4,6.8-8.6c0.6-0.9,0.9-1.8,1.2-2.7l1.2-2.7h-6.3l-0.6,1.2  c-0.3,0.6-0.6,1.2-0.9,1.8c-1.5,2.7-3.6,5.1-5.7,6.8c-2.4,1.8-5.1,3.3-8,4.5c-3,1.2-6,1.8-9.2,1.8c-3.9,0-7.4-0.6-10.4-2.1  c-3.3-1.5-5.9-3.3-8.3-5.7c-2.4-2.4-4.2-5.4-5.4-8.3c-1.2-2.7-1.8-5.4-1.8-8h58.6v-1.5H314.5L314.5,269.5z M256.2,265.6  c0.3-2.4,0.9-4.5,1.8-6.2c1.5-3.3,3.3-6,5.7-8.3c2.4-2.4,5.4-4.2,8.3-5.7c3.3-1.2,6.5-2.1,10.1-2.1c3.9,0,7.1,0.6,10.4,2.1  c3.3,1.5,6,3.3,8.3,5.7c2.4,2.4,4.2,5.4,5.7,8.3c0.9,1.8,1.2,3.9,1.8,6h-52.1V265.6z M95.2,257c-1.8-3.9-4.2-7.4-6.8-10.1  c-3-3-6.2-5.4-10.1-6.8c-3.9-1.8-8-2.7-12.5-2.7c-4.5,0-8.6,0.9-12.8,2.7c-3.9,1.8-7.4,4.2-10.1,6.8c-3,3-5.1,6.2-6.8,10.1  c-1.8,3.9-2.4,8-2.4,12.5v56h6v-36.9c0.9,1.5,2.1,2.7,3.3,3.9c3,3,6.3,5.1,10.1,6.8s8,2.4,12.8,2.4c4.5,0,8.6-0.9,12.5-2.4  c3.9-1.8,7.4-3.9,10.1-6.8c3-3,5.4-6.3,6.8-10.1c1.8-3.9,2.7-8.3,2.7-12.8C97.9,265.3,97,260.9,95.2,257z M65.4,296  c-3.6,0-7.1-0.6-10.1-2.1c-3.3-1.5-6-3.3-8.3-5.7s-4.2-5.1-5.7-8.3c-1.5-3.3-2.1-6.5-2.1-10.1s0.6-7.1,2.1-10.1  c1.5-3.3,3.3-5.9,5.7-8.3c2.4-2.4,5.1-4.2,8.3-5.7c3.3-1.5,6.5-2.1,10.1-2.1s7.1,0.6,10.1,2.1c3.3,1.5,6,3.3,8.3,5.7  c2.4,2.4,4.2,5.1,5.7,8.3c1.5,3.3,2.1,6.5,2.1,10.1c0,3.6-0.6,7.1-2.1,10.1c-1.5,3.3-3.3,6-5.7,8.3s-5.1,4.2-8.3,5.7  C72.6,295.1,69,296,65.4,296z"/>
<path class="st2" d="M173.5,529.9c25.6-29.8,54.8-64.9,63.1-80.7c1.2-2.1,2.4-4.2,3.3-6.5c0.3-0.3,0.3-0.6,0.3-0.6  c3.3-8,5.4-16.7,6-25.9c1.5-40.2-29.8-74.1-69.9-75.9h-5.1c-40.2,1.5-71.4,35.4-69.9,75.9c0.3,9.2,2.4,17.9,6,25.9  c0,0,0,0.3,0.3,0.6c0.9,2.1,2.1,4.5,3.3,6.5C119,465.3,148.2,500.1,173.5,529.9"/>
<radialGradient id="SVGID_1_" cx="-293.256" cy="550.2108" r="2.1488" gradientTransform="matrix(34.8624 0 0 -34.8615 10396.9473 19614.4004)" gradientUnits="userSpaceOnUse">
	<stop offset="0" style="stop-color:#632581"/>
	<stop offset="0" style="stop-color:#6D2481"/>
	<stop offset="1" style="stop-color:#462562"/>
</radialGradient>
<path class="st3" d="M172.9,348.9h-1.8c-35.7,1.5-63.4,31.5-62.2,67.3c0.3,8,2.1,15.8,5.1,22.9c0,0,0,0.3,0.3,0.6  c0.9,2.1,1.8,3.9,3,5.7c7.4,14.3,33.3,45.2,56,71.7c22.6-26.5,48.5-57.4,56-71.7c1.2-1.8,2.1-3.9,3-5.7c0.3-0.3,0.3-0.6,0.3-0.6  c3-7.1,4.8-14.9,5.1-22.9c1.5-35.7-26.5-65.8-62.2-67.3H172.9L172.9,348.9z"/>
</svg>