<svg xmlns:dc="http://purl.org/dc/elements/1.1/" xmlns:cc="http://creativecommons.org/ns#" xmlns:rdf="http://www.w3.org/1999/02/22-rdf-syntax-ns#" xmlns:svg="http://www.w3.org/2000/svg" xmlns="http://www.w3.org/2000/svg" xmlns:sodipodi="http://sodipodi.sourceforge.net/DTD/sodipodi-0.dtd" xmlns:inkscape="http://www.inkscape.org/namespaces/inkscape" sodipodi:docname="dao-map-pin.svg" inkscape:version="1.0 (4035a4fb49, 2020-05-01)" id="svg49" version="1.1" viewBox="5 5 120 141.79">
  <defs id="defs43"><rect id="rect123" height="36.883194" width="97.28611" y="142.72192" x="59.868374"/>

	
	
	
</defs>
  <sodipodi:namedview inkscape:window-maximized="1" inkscape:window-y="-9" inkscape:window-x="-9" inkscape:window-height="1271" inkscape:window-width="2400" fit-margin-bottom="5" fit-margin-right="5" fit-margin-left="5" fit-margin-top="5" showgrid="false" inkscape:document-rotation="0" inkscape:current-layer="layer1" inkscape:document-units="mm" inkscape:cy="375.0971" inkscape:cx="66.56702" inkscape:zoom="0.67465308" inkscape:pageshadow="2" inkscape:pageopacity="0.0" borderopacity="1.0" bordercolor="#666666" pagecolor="#ffffff" id="base"/>
  <metadata id="metadata46">
    <rdf:RDF>
      <cc:Work rdf:about="">
        <dc:format>image/svg+xml</dc:format>
        <dc:type rdf:resource="http://purl.org/dc/dcmitype/StillImage"/>
        <dc:title/>
      </cc:Work>
    </rdf:RDF>
  </metadata>
  <g transform="translate(-40,-63.955536)" id="layer1" inkscape:groupmode="layer" inkscape:label="Layer 1">
    <path d="M 88.413685,68.955536 H 121.58632 C 145.6375,68.955536 165,88.318039 165,112.36922 v 33.17263 c 0,24.05118 -19.3625,43.41369 -43.41368,43.41369 H 88.413685 C 64.362503,188.95554 45,169.59303 45,145.54185 V 112.36922 C 45,88.318039 64.362503,68.955536 88.413685,68.955536 Z" style="fill:#e20613;fill-opacity:1;stroke-width:0.282532" id="rect93"/>
    <path d="m 113.18865,-172.28117 -19.761805,-0.74403 -19.773265,0.31717 10.525256,-16.74222 9.611956,-17.28273 9.236548,17.48625 z" transform="matrix(2.1069506,0,0,-1,-91.833678,4.0090429)" inkscape:transform-center-y="-1.3205839" inkscape:transform-center-x="1.647684" style="fill:#e20613;fill-opacity:1;stroke-width:0.264583" id="path97"/>
    <path id="path101" d="m 150.4548,105.0147 c -2.30892,-1.27859 -7.29917,-1.34066 -9.9805,-1.34066 -2.68133,0 -7.67158,0.0621 -9.9805,1.34066 -6.02057,3.2896 -6.33091,10.5267 -6.33091,14.90868 0,4.44406 0.31034,11.69357 6.33091,14.97075 2.30892,1.2786 7.29917,1.34067 9.9805,1.34067 2.68133,0 7.67158,-0.0621 9.9805,-1.34067 6.02058,-3.28959 6.33092,-10.52669 6.33092,-14.97075 0,-4.36957 -0.29793,-11.61908 -6.33092,-14.90868 m -6.81504,21.54994 c -0.79447,0.42206 -2.24685,0.48413 -3.16546,0.48413 -0.9186,0 -2.37099,-0.0621 -3.16545,-0.48413 -1.4648,-0.85654 -1.52687,-3.83579 -1.52687,-6.69091 0,-2.80546 0.0621,-5.66058 1.52687,-6.51712 0.79446,-0.42206 2.24685,-0.48412 3.16545,-0.48412 0.91861,0 2.37099,0.0621 3.16546,0.48412 1.4648,0.85654 1.52687,3.71166 1.52687,6.51712 0,2.85512 -0.0621,5.84679 -1.52687,6.69091 z" class="st0" style="fill:#ffffff;stroke-width:0.124136"/>
    <path id="path103" d="M 86.413266,103.66163 V 83.464771 h -6.330913 c -3.302006,0 -5.288175,3.314419 -5.288175,6.52953 v 13.816289 c -1.576522,-0.11172 -3.562691,-0.12414 -4.692324,-0.12414 -2.681329,0 -7.671578,0.0621 -9.980499,1.34067 -6.020575,3.27718 -6.330914,10.52669 -6.330914,14.90868 0,4.44405 0.310339,11.69357 6.330914,14.97075 2.308921,1.27859 7.29917,1.34066 9.980499,1.34066 2.681328,0 7.671577,-0.0621 9.980499,-1.34066 6.020574,-3.2896 6.330913,-10.5267 6.330913,-14.97075 0,-0.60827 -0.01241,-1.26618 -0.03724,-1.96134 l 0.03724,-14.31283 M 73.26731,126.56464 c -0.794467,0.42206 -2.246853,0.48413 -3.165456,0.48413 -0.918604,0 -2.37099,-0.0621 -3.165457,-0.48413 -1.4648,-0.85654 -1.526868,-3.83579 -1.526868,-6.69091 0,-2.80546 0.06207,-5.66058 1.526868,-6.51712 0.794467,-0.42206 2.246853,-0.48412 3.165457,-0.48412 0.918603,0 2.370989,0.0621 3.165456,0.48412 1.4648,0.85654 1.526868,3.71166 1.526868,6.51712 0,2.85512 -0.06207,5.84679 -1.526868,6.69091 z" class="st0" style="fill:#ffffff;stroke-width:0.124136"/>
    <path id="path105" d="m 121.46915,113.17041 c 0,-5.11438 -4.30751,-9.35982 -9.84395,-9.35982 -2.70616,0 -3.79855,0 -6.47988,0 -2.68133,0 -7.671575,-0.0621 -9.980497,1.21653 -6.020575,3.28959 -6.330913,10.52669 -6.330913,14.90868 0,4.44405 0.310338,11.69357 6.330913,14.97075 1.886861,1.04274 5.039907,1.29101 7.783297,1.34066 6.5916,0.0124 6.88953,-5.98333 6.88953,-5.98333 0,2.2965 1.94892,5.98333 5.59851,5.98333 h 6.02057 l 0.0124,-19.70031 v -3.37649 m -13.15837,13.39423 c -0.79447,0.42206 -2.24685,0.48413 -3.16546,0.48413 -0.9186,0 -2.37099,-0.0621 -3.16545,-0.48413 -1.4648,-0.85654 -1.52687,-3.83579 -1.52687,-6.69091 0,-2.80546 0.0621,-5.66058 1.52687,-6.51712 0.79446,-0.42206 2.24685,-0.48412 3.16545,-0.48412 0.91861,0 2.37099,0.0621 3.16546,0.48412 1.4648,0.85654 1.52687,3.71166 1.52687,6.51712 0,2.85512 -0.0621,5.84679 -1.52687,6.69091 z" class="st0" style="fill:#ffffff;stroke-width:0.124136"/>
    <path id="path137" style="font-style:normal;font-variant:normal;font-weight:bold;font-stretch:normal;font-size:25.4px;line-height:1.25;font-family:'Poppins Medium';-inkscape-font-specification:'Poppins Medium, Bold';letter-spacing:6.61458px;word-spacing:0.00529167px;white-space:pre;fill:#ffffff;fill-opacity:1;stroke:none" d="m 73.40734,159.9429 q 0,1.3208 -0.635,2.4638 -0.635,1.1176 -1.9304,1.8034 -1.2954,0.6858 -3.174999,0.6858 -1.8288,0 -3.2766,-0.635 -1.4478,-0.6604 -2.3114,-1.8288 -0.8636,-1.1684 -0.9906,-2.6924 h 3.0988 q 0.127,1.1684 0.9906,2.0066 0.889,0.8382 2.3622,0.8382 1.320799,0 2.031999,-0.7112 0.7366,-0.7112 0.7366,-1.8288 0,-0.9652 -0.5334,-1.5748 -0.5334,-0.635 -1.3208,-0.9906 -0.787399,-0.3556 -2.158999,-0.8128 -1.6764,-0.5334 -2.7432,-1.0668 -1.0414,-0.5334 -1.778,-1.5494 -0.7366,-1.016 -0.7366,-2.667 0,-1.4478 0.7112,-2.54 0.7112,-1.0922 2.032,-1.6764 1.3208,-0.6096 3.048,-0.6096 2.743199,0 4.343399,1.3208 1.6256,1.3208 1.8542,3.4544 h -3.1242 q -0.1778,-1.016 -0.9652,-1.7272 -0.761999,-0.7366 -2.108199,-0.7366 -1.2192,0 -1.9558,0.635 -0.7366,0.6096 -0.7366,1.778 0,0.9144 0.508,1.524 0.508,0.5842 1.27,0.9398 0.7874,0.3302 2.1336,0.7874 1.701799,0.5334 2.768599,1.0922 1.0922,0.5334 1.8288,1.5748 0.762,1.0414 0.762,2.7432 z"/>
    <path id="path139" style="font-style:normal;font-variant:normal;font-weight:bold;font-stretch:normal;font-size:25.4px;line-height:1.25;font-family:'Poppins Medium';-inkscape-font-specification:'Poppins Medium, Bold';letter-spacing:6.61458px;word-spacing:0.00529167px;white-space:pre;fill:#ffffff;fill-opacity:1;stroke:none" d="m 97.170094,146.7857 v 17.9324 h -2.921 v -8.0518 h -8.432799 v 8.0518 h -2.8956 v -17.9324 h 2.8956 v 7.5184 h 8.432799 v -7.5184 z"/>
    <path id="path141" style="font-style:normal;font-variant:normal;font-weight:bold;font-stretch:normal;font-size:25.4px;line-height:1.25;font-family:'Poppins Medium';-inkscape-font-specification:'Poppins Medium, Bold';letter-spacing:6.61458px;word-spacing:0.00529167px;white-space:pre;fill:#ffffff;fill-opacity:1;stroke:none" d="m 115.60123,146.5571 q 2.4892,0 4.4958,1.1684 2.032,1.1684 3.175,3.2766 1.1684,2.0828 1.1684,4.7244 0,2.6416 -1.1684,4.7498 -1.143,2.0828 -3.175,3.2766 -2.0066,1.1684 -4.4958,1.1684 -2.5146,0 -4.5466,-1.1684 -2.0066,-1.1938 -3.175,-3.2766 -1.1684,-2.1082 -1.1684,-4.7498 0,-2.6416 1.1684,-4.7244 1.1684,-2.1082 3.175,-3.2766 2.032,-1.1684 4.5466,-1.1684 z m 0,2.6924 q -1.7272,0 -3.0734,0.7874 -1.3462,0.7874 -2.1082,2.2606 -0.7366,1.4732 -0.7366,3.429 0,1.9558 0.7366,3.429 0.762,1.4732 2.1082,2.2606 1.3462,0.7874 3.0734,0.7874 1.7018,0 3.0226,-0.7874 1.3462,-0.7874 2.0828,-2.2606 0.762,-1.4732 0.762,-3.429 0,-1.9558 -0.762,-3.429 -0.7366,-1.4732 -2.0828,-2.2606 -1.3208,-0.7874 -3.0226,-0.7874 z"/>
    <path id="path143" style="font-style:normal;font-variant:normal;font-weight:bold;font-stretch:normal;font-size:25.4px;line-height:1.25;font-family:'Poppins Medium';-inkscape-font-specification:'Poppins Medium, Bold';letter-spacing:6.61458px;word-spacing:0.00529167px;white-space:pre;fill:#ffffff;fill-opacity:1;stroke:none" d="m 136.8478,157.7585 v 6.9596 h -2.8956 v -17.9324 h 6.096 q 3.0988,0 4.6482,1.4732 1.5748,1.4732 1.5748,4.0386 0,2.54 -1.6002,4.0132 -1.6002,1.4478 -4.6228,1.4478 z m 2.8956,-2.3622 q 3.5814,0 3.5814,-3.0988 0,-1.524 -0.8636,-2.3114 -0.8382,-0.8128 -2.7178,-0.8128 h -2.8956 v 6.223 z"/>
  </g>
  <style type="text/css" id="style99">
	.st0{fill:#E30613;}
</style>
</svg>