<svg xmlns="http://www.w3.org/2000/svg" xmlns:xlink="http://www.w3.org/1999/xlink" width="278px" height="85px" viewBox="0 0 278 85"><title>instabox-logotype-landscape-screen</title><g id="Page-1" stroke="none" stroke-width="1" fill="none" fill-rule="evenodd"><g id="instabox-logotype-landscape-screen" transform="translate(0.383953, 0.230705)" fill-rule="nonzero"><path d="M12.819426,-5.17920154e-16 L264.180574,5.17920154e-16 C268.638168,-3.00926524e-16 270.254599,0.464128056 271.884229,1.33566352 C273.513858,2.20719898 274.792801,3.48614185 275.664336,5.11577148 C276.535872,6.74540111 277,8.3618323 277,12.819426 L277,71.180574 C277,75.6381677 276.535872,77.2545989 275.664336,78.8842285 C274.792801,80.5138581 273.513858,81.792801 271.884229,82.6643365 C270.254599,83.5358719 268.638168,84 264.180574,84 L12.819426,84 C8.3618323,84 6.74540111,83.5358719 5.11577148,82.6643365 C3.48614185,81.792801 2.20719898,80.5138581 1.33566352,78.8842285 C0.464128056,77.2545989 2.00617683e-16,75.6381677 -3.45280103e-16,71.180574 L3.45280103e-16,12.819426 C-2.00617683e-16,8.3618323 0.464128056,6.74540111 1.33566352,5.11577148 C2.20719898,3.48614185 3.48614185,2.20719898 5.11577148,1.33566352 C6.74540111,0.464128056 8.3618323,3.00926524e-16 12.819426,-5.17920154e-16 Z" id="BG" fill="#FF3E3E"></path><g id="logo" transform="translate(19.000000, 15.000000)" fill="#FFFFFF"><polyline id="Fill-16" points="229.658985 31.0104204 241 47.7108433 228.79757 47.7108433 223.270632 39.2154025 217.742749 47.7108433 206.114596 47.7108433 217.383826 31.0830353 206.616616 15.0361446 218.747733 15.0361446 223.772179 22.8780532 228.869355 15.0361446 240.497036 15.0361446 229.658985 31.0104204"></polyline><path d="M190.56199,23.4546837 C187.133454,23.4546837 185.205636,26.621531 185.205636,31.0845741 C185.205636,35.5476171 187.133454,38.64248 190.56199,38.64248 C194.061004,38.64248 195.989292,35.5476171 195.989292,31.0845741 C195.989292,26.621531 194.061004,23.4546837 190.56199,23.4546837 Z M190.56199,48 C180.849135,48 174.136309,41.0899553 174.136309,31.0845741 C174.136309,21.079193 180.849135,14.1686747 190.56199,14.1686747 C200.345322,14.1686747 206.986731,21.079193 206.986731,31.0845741 C206.986731,41.0899553 200.345322,48 190.56199,48 Z" id="Fill-14"></path><path d="M149.667559,35.2774254 C150.530433,37.0847446 152.39952,38.3137214 154.629083,38.3137214 C158.511541,38.3137214 160.812064,35.2046571 160.812064,31.0121526 C160.812064,26.8196482 158.511541,23.6387668 154.629083,23.6387668 C152.471899,23.6387668 150.530433,24.9395609 149.667559,26.6745871 L149.667559,35.2774254 Z M149.667559,47.2770723 L138.378769,47.2770723 L138.378769,0.289156626 L149.667559,0.289156626 L149.667559,17.3492967 C151.177115,15.6142705 154.340985,14.0238298 157.648667,14.0238298 C166.996465,14.0238298 172.101327,21.6145695 172.101327,31.0121526 C172.101327,40.4097357 166.996465,48 157.648667,48 C154.340985,48 151.177115,46.4095592 149.667559,44.6750086 L149.667559,47.2770723 Z" id="Fill-13"></path><path d="M122.617832,36.4341983 C121.901824,35.0601708 120.110154,34.1931399 118.104011,34.1931399 C115.883397,34.1931399 113.661839,35.1324632 113.661839,37.3012292 C113.661839,39.5422874 115.883397,40.4816108 118.104011,40.4816108 C120.110154,40.4816108 121.901824,39.6145799 122.617832,38.31332 L122.617832,36.4341983 Z M122.617832,27.8314259 C122.617832,25.3011987 120.325569,23.4943692 115.740101,23.4943692 C112.659239,23.4943692 109.507201,24.2895834 106.927404,25.8072442 L106.927404,16.6993775 C109.578849,15.2535334 113.877254,14.1686747 118.462251,14.1686747 C127.990956,14.1686747 133.436671,18.7230836 133.436671,27.3253805 L133.436671,47.4216623 L122.617832,47.4216623 L122.617832,45.7589415 C121.543584,46.8433247 118.462251,48 115.023621,48 C108.647426,48 103.202654,44.3853898 103.202654,37.5181059 C103.202654,31.2286839 108.647426,27.1812717 115.596333,27.1812717 C118.319426,27.1812717 121.328169,28.0483026 122.617832,28.9881012 L122.617832,27.8314259 Z" id="Fill-11"></path><polyline id="Fill-10" points="96.6348609 47.7108433 85.5086092 47.7108433 85.5086092 23.9177247 79.9457178 23.9177247 79.9457178 15.0677899 85.5086092 15.0677899 85.5086092 6.07228916 96.6348609 6.07228916 96.6348609 15.0677899 102.911942 15.0677899 102.911942 23.9177247 96.6348609 23.9177247 96.6348609 47.7108433"></polyline><path d="M52.7618754,35.4031746 C55.8270594,37.9226342 60.8181262,39.5062949 64.0976617,39.5062949 C66.3073145,39.5062949 67.7327306,39.0024028 67.7327306,37.5631851 C67.7327306,36.2669892 66.7350801,35.763571 64.8101352,35.3316634 L62.3148365,34.6838025 C56.3978823,33.3876066 52.6188178,30.5806822 52.6188178,24.7499323 C52.6188178,17.9838567 58.1797696,14.1686747 65.7364916,14.1686747 C70.2997928,14.1686747 73.7927421,15.1049476 76.9292202,17.0480574 L76.9292202,26.3340664 C73.8640365,24.1025448 70.4423814,22.5903953 66.8063743,22.5903953 C64.8818987,22.5903953 63.5981329,23.23873 63.5981329,24.5344522 C63.5981329,25.7577162 64.5244893,26.1896236 66.0929627,26.621531 L69.0160271,27.4853458 C76.0033331,29.3569446 78.7828709,32.2363272 78.7828709,37.7066806 C78.7828709,44.6167255 72.8654478,48 64.9522546,48 C60.4616548,48 55.7567032,46.9202314 52.7618754,44.9051374 L52.7618754,35.4031746" id="Fill-8"></path><path d="M17.442702,14.8920729 L28.722316,14.8920729 L28.722316,17.711471 C30.5190561,15.6872877 33.680014,14.1686747 37.4162503,14.1686747 C44.6013201,14.1686747 48.8395658,18.8676715 48.8395658,26.0964217 L48.8395658,47.4216866 L37.6313298,47.4216866 L37.6313298,28.8435274 C37.6313298,26.1691896 36.2671119,24.216823 33.3930841,24.216823 C31.1652397,24.216823 29.2971215,25.5185593 28.722316,27.7591437 L28.722316,47.4216866 L17.442702,47.4216866 L17.442702,14.8920729" id="Fill-6"></path><path d="M0.718639753,47.4216866 L11.9998655,47.4216866 L11.9998655,14.9413526 L0.718639753,14.9413526 L0.718639753,47.4216866 Z M6.39542102,12.1979335 C2.9454774,12.1979335 0,9.81637796 0,6.13553302 C0,2.38203047 2.9454774,0 6.39542102,0 C9.84441905,0 12.7913148,2.38203047 12.7913148,6.13553302 C12.7913148,9.81637796 9.84441905,12.1979335 6.39542102,12.1979335 Z" id="Fill-5"></path></g></g></g></svg>